<?xml version="1.0" standalone="no"?>
<!DOCTYPE svg PUBLIC "-//W3C//DTD SVG 20010904//EN"
 "http://www.w3.org/TR/2001/REC-SVG-20010904/DTD/svg10.dtd">
<svg version="1.0" xmlns="http://www.w3.org/2000/svg"
 width="284.000000pt" height="284.000000pt" viewBox="0 0 284.000000 284.000000"
 preserveAspectRatio="xMidYMid meet">
<metadata>
Created by potrace 1.14, written by Peter Selinger 2001-2017
</metadata>
<g transform="translate(0.000000,284.000000) scale(0.100000,-0.100000)"
fill="#000000" stroke="none">
<path d="M1329 2776 c-2 -2 -38 -6 -80 -10 -110 -9 -284 -58 -406 -114 -39
-18 -170 -91 -188 -104 -340 -260 -500 -508 -580 -901 -7 -31 -18 -179 -18
-232 -3 -596 392 -1127 966 -1299 65 -20 137 -38 160 -41 23 -3 60 -8 82 -11
189 -25 462 10 628 79 20 9 37 14 37 11 0 -3 49 20 109 51 140 73 277 177 375
284 17 19 36 39 41 45 68 74 165 232 211 343 79 189 105 315 109 523 4 224
-45 438 -147 638 -146 289 -418 534 -708 642 -106 40 -198 67 -247 75 -23 3
-57 8 -75 11 -43 6 -264 14 -269 10z"/>
</g>
</svg>
